<svg xmlns="http://www.w3.org/2000/svg" x="0" y="0" style="enable-background:new 0 0 387 209" version="1.1" viewBox="0 0 387 209"><style>.st0{fill:none;stroke:#e29473;stroke-width:4;stroke-miterlimit:10}</style><path d="M1 2c2 1 91 26 111 42s20 16 39 56c0 0 7 16 24 34s34 34 33 41-7 6-17-2-37-38-41-38-5 3-18 3"></path><path d="m144 136 2 37c1 13 6 28-1 32s-13 2-17-18-4-39-1-47l-13-5"></path><path d="m121 139-4 21c-2 6-4 14-4 19s1 23-5 24-11-9-10-29c1-21 6-39 6-40M141 85c-2 0-9 11-14 13s-10 11-12 16-9 22-20 25-11-7-9-14 13-21 15-27 4-30 8-33M110 52c-1 0-17 10-18 21"></path><path d="M89 117s-7-14-4-22 1-19 7-22 9 1 11 9"></path><path d="M116 61c0-1-14 4-17 13M92 75s-3 6-2 10 5 5 7 2c3-2 4-10 3-11s-4-3-8-1zM19 69c1 0 53 11 56 16s4 30 12 38M86 132c-1-1 3-11 8-10s10 4 10 6c0 3-6 10-6 10s-11 4-12-6zM101 108s2 5 9 7M107 120l-7-4M136 128s-25-8-18-20 29 0 29 0M162 118s-8 2-8 9M125 159c1 0 4-4 11-3M128 185s4-5 10-4M98 174s5-4 9-2M100 152s8-2 13 1"></path><path d="M208 172c4 2 6 14-8 7 0 0 8 0 8-7z"></path><path d="M191 159s-5 4-6 9"></path></svg>