<svg class="c-swipe_button_svg -heart-in" width="34" height="35" viewBox="0 0 34 35" xmlns="http://www.w3.org/2000/svg">
                            <path d="M25.4949 0.658738C19.5422 2.07641 12.9559 7.03323 11.1371 12.248C11.1371 11.318 10.5694 10.4422 10.2865 9.55242C9.72781 7.79523 8.97947 6.11946 7.97769 4.52439C7.40477 3.61217 6.69589 2.68042 5.73386 2.05264C4.93507 1.53139 3.63296 1.39301 3.11159 2.28595C2.02057 4.15454 1.56851 6.55696 1.21179 8.59888C0.402862 13.2293 0.829308 20.3051 3.11159 24.5588C3.98696 27.0444 10.4731 35.5392 11.0089 34.973C11.497 34.4573 12.0626 34.018 12.5729 33.5215C14.3468 31.7954 16.1147 30.0534 17.8161 28.2712C19.961 26.0243 21.9794 23.6712 23.9566 21.3085C27.0328 17.6327 30.3236 13.9044 32.2252 9.60584C33.1707 7.46846 35.1598 2.64467 32.4431 0.772136C30.4932 -0.57189 27.6717 0.140332 25.4949 0.658738Z"></path>
                        </svg>