<svg xmlns="http://www.w3.org/2000/svg" class="c-swipe_button_svg -heart-out" width="43" height="51" viewBox="0 0 43 51">
                            <path d="M31.2334 3.84695C24.3788 5.66967 14.3602 19.2185 14.3545 18.7857C14.3488 18.3529 14.0464 16.4257 13.7207 15.2817C13.0773 13.0224 12.2156 10.8679 11.062 8.81707C10.4023 7.64422 9.58602 6.44626 8.47821 5.63911C7.5584 4.96893 6.059 4.79102 5.45864 5.93908C4.20231 8.34155 3.68176 11.4304 3.27099 14.0557C2.33949 20.0091 2.83055 29.1066 5.45864 34.5756C6.46663 37.7714 13.9355 48.6932 14.5525 47.9653C15.1145 47.3023 15.7659 46.7374 16.3535 46.0991C18.3961 43.8798 20.4319 41.6401 22.3911 39.3486C24.861 36.4598 27.1852 33.4344 29.462 30.3967C33.0042 25.6706 36.7937 20.8771 38.9834 15.3504C40.0721 12.6023 42.3626 6.40028 39.2343 3.99275C36.989 2.26471 33.74 3.18043 31.2334 3.84695Z"></path>
                        </svg>