<svg xmlns="http://www.w3.org/2000/svg" width="270.9" height="89.2" viewBox="0 0 270.9 89.2">
                            <path d="M3.9,23c-6.5,9.3-4.7,21.7,4.1,28c8.6,6,20.1,3.7,26.7-4.5l-0.2-0.1c-5.8,5.4-14.9,6.1-21.5,1.5
                                c-7.6-5.3-9.3-15.8-3.6-23.8c5.3-7.6,15.8-9.9,22.6-5.1l3.1,2.2l0.7,12.6l3.2,2.1l2.6-11.3l-10.1-7.1C22.7,11.3,10.4,13.7,3.9,23z"></path>
                            <path d="M40.3,47.6C36,58.4,40.8,70.1,50.9,74.2c10.1,4.1,21.7-1.1,26-11.8c4.3-10.8-0.5-22.4-10.6-26.5
                                C56.2,31.8,44.6,36.9,40.3,47.6z M46.2,50C50.4,39.7,59.1,33.9,66,36.6c6.8,2.7,9.2,13,5,23.3c-4.1,10.3-12.9,16.1-19.7,13.4
                                C44.4,70.6,42.1,60.4,46.2,50z"></path>
                            <path d="M77.2,83.3l14.1,2.2l0-0.1l-6-4.9l5.1-31.8l18.5,39.7l1.7,0.3l5.8-36.1l7.2-2.8l0-0.1l-14.1-2.2l0,0.1l6,4.9
                                l-4.3,26.9L95.2,45.1l-10-1.6l0,0.2l4.4,4l-5.2,32.8l-7.2,2.8L77.2,83.3z"></path>
                            <path d="M121.6,60.4l0.1,0.1l6.2-10.6l8.2-0.4l1.7,37.5l-4.1,2.1l0,0.2l14.2-0.7l0-0.2l-4.3-1.7l-1.7-37.5l8.2-0.4
                                l7.1,9.9l0.2-0.1l-2.5-11.1l-31.7,1.5L121.6,60.4z"></path>
                            <path d="M162.7,87.9l13.7-3.5l0-0.1l-7.3-2.1l1.1-11.2l16.2-4.1l7.8,11l-3.6,2.8l0,0.2l14.3-3.6l0-0.2l-4.5-0.9
                                l-23.9-33.6l-8.7,2.2l0,0.2l3.9,1.3L168,82.4l-5.3,5.4L162.7,87.9z M170.3,70l2.3-22.6L185.9,66L170.3,70z"></path>
                            <path d="M201.4,56.7c5.2,10.1,17,14.4,26.6,9.5c9.3-4.7,12.7-16,8.6-25.7l-0.2,0.1c2.1,7.7-1.6,16-8.7,19.7
                                c-8.3,4.2-18.3,0.8-22.8-8c-4.2-8.3-1.3-18.6,6.1-22.4l3.4-1.7l11.4,5.3l3.3-1.8l-8.7-7.6l-11,5.6C199.9,34.6,196.3,46.6,201.4,56.7
                                z"></path>
                            <path d="M233.1,29.9l0.1,0l-1.3-12.2l6.4-5.1l23.6,29.2l-2.1,4.1l0.1,0.1l11-8.9l-0.1-0.1l-4.4,1.2L242.8,8.9l6.4-5.1
                                l11.6,3.8l0.1-0.2L252.2,0l-24.7,19.9L233.1,29.9z"></path>
                        </svg>