<svg width="247" height="74" viewBox="0 0 247 74" xmlns="http://www.w3.org/2000/svg">
                        <path d="M16.5787 62.7799L22.349 59.0186L22.3184 58.9717L18.5965 59.1584L10.3705 46.5387L26.2899 55.681L26.3603 55.6352L23.9367 37.6624L32.6978 51.1031L31.4982 52.9546L31.5441 53.0249L37.291 49.2789L37.2451 49.2085L35.0669 49.5588L25.8318 35.3909L26.9153 32.7461L26.8695 32.6757L23.1399 35.1068L25.368 51.703L10.6374 43.2564L6.60287 45.8862L6.64874 45.9566L9.50592 46.0327L18.2212 59.4031L16.5481 62.733L16.5787 62.7799Z"></path>
                        <path d="M37.8364 49.1267L43.9782 46.1988L43.9541 46.1483L40.2907 45.8164L39.7792 40.3838L47.0837 36.9017L51.8214 41.3742L50.3872 43.0506L50.4233 43.1264L56.8432 40.066L56.807 39.9902L54.5776 39.9983L40.0935 26.3376L36.1759 28.2051L36.212 28.281L38.1984 28.5438L39.8358 46.0333L37.8123 49.0762L37.8364 49.1267ZM39.7501 39.9324L38.7403 29.0299L46.7513 36.5948L39.7501 39.9324Z"></path>
                        <path d="M56.6558 40.3466L63.1227 38.0577L63.0947 37.9785L60.8952 37.8065L58.7838 31.8411C61.3896 34.8395 65.5555 36.959 70.9621 35.283L69.8224 32.0627C64.7544 33.8565 60.9461 33.8381 58.4475 30.8909L58.4382 30.8645L61.7376 29.6967C65.4858 28.3701 67.0425 25.3835 65.9307 22.2424C64.819 19.1014 61.7301 17.7591 57.9819 19.0857L50.1161 21.8698L50.1348 21.9226L52.3342 22.0946L58.2293 38.7501L56.6278 40.2674L56.6558 40.3466ZM58.2887 30.4422L54.832 20.6759L57.2868 19.807C59.6096 18.9849 62.0897 20.4535 63.08 23.2514C64.0703 26.0493 63.0663 28.7512 60.7435 29.5733L58.2887 30.4422Z"></path>
                        <path d="M71.3457 24.9763C72.5788 30.324 77.6109 33.7037 82.713 32.5272C87.6241 31.3948 90.5253 26.5305 89.7413 21.5103L89.6322 21.5355C89.7113 25.3677 87.0117 28.8636 83.2465 29.7318C78.8811 30.7385 74.5919 27.9633 73.5223 23.325C72.5157 18.9595 75.0978 14.4562 78.9995 13.5565L80.7729 13.1476L85.5048 16.9701L87.2657 16.5066L84.0555 11.9309L78.2713 13.2647C73.2237 14.4286 70.1126 19.6286 71.3457 24.9763Z"></path>
                        <path d="M93.5924 30.0222L100.412 29.2832L100.403 29.1997L98.3026 28.5261L97.3886 20.0914L106.185 19.1382L107.099 27.5729L105.191 28.6808L105.2 28.7643L112.021 28.0253L112.011 27.9418L109.911 27.2682L108.007 9.70302L109.915 8.59505L109.909 8.53938L103.089 9.27841L103.095 9.33408L105.196 10.0077L106.14 18.7207L97.3434 19.6739L96.3992 10.9609L98.307 9.85292L98.301 9.79724L91.4809 10.5363L91.4869 10.5919L93.5877 11.2655L95.4911 28.8307L93.5833 29.9387L93.5924 30.0222Z"></path>
                        <path d="M126.62 4.35579L119.799 6.51519L119.744 6.40276L125.71 2.50071L126.62 4.35579ZM114.901 28.01L128.564 28.1155L130.704 22.9519L128.885 22.8818L125.068 27.6405L119.748 27.5994L119.819 18.3597L122.619 18.3813L124.971 22.0396L125.111 22.0407L125.17 14.4249L125.03 14.4238L122.622 18.0173L119.822 17.9957L119.892 8.89599L125.632 8.9403L128.259 13.2167L130.08 13.1748L129.135 8.51934L115.052 8.4106L115.051 8.4666L117.06 9.37814L116.924 27.0456L114.901 27.926L114.901 28.01Z"></path>
                        <path d="M139.429 28.8104L148.2 30.1721C153.374 30.9754 157.364 27.1746 158.242 22.0688C159.102 17.0737 156.491 11.6246 151.206 10.8041L142.435 9.44246L142.427 9.4978L144.282 10.6925L141.571 28.1513L139.441 28.7274L139.429 28.8104ZM144.284 29.1109L147.153 10.6283L149.699 11.0235C153.905 11.6764 156.167 16.8163 155.364 21.622C154.535 26.5938 150.952 30.1461 146.829 29.5061L144.284 29.1109Z"></path>
                        <path d="M164.894 13.311L166.589 14.7225L163.636 25.1484C162.072 30.6711 164.317 33.6352 168.466 34.8103C172.615 35.9854 176.054 34.6314 177.645 29.1163L180.331 19.6333L183.941 18.7058L183.956 18.652L177.329 16.7748L177.313 16.8287L179.9 19.5112L177.123 29.3175C175.963 33.4124 173.179 35.3303 169.838 34.3841C166.498 33.4379 165.106 30.3373 166.266 26.2423L169.31 15.4932L171.494 15.1805L171.51 15.1266L164.909 13.2572L164.894 13.311Z"></path>
                        <path d="M185.953 40.4964L196.992 45.5092L201.876 42.0684L200.089 41.1955L194.042 43.6773L190.549 42.0913L198.074 25.5197L200.28 25.5374L200.303 25.4865L194.057 22.6501L194.034 22.7011L195.499 24.3505L188.194 40.4376L185.988 40.4199L185.953 40.4964Z"></path>
                        <path d="M200.302 47.059L212.142 53.8784L216.547 50.4377L214.998 49.4808L209.333 51.7434L204.723 49.0883L209.334 41.0813L211.761 42.4787L212.006 46.8208L212.128 46.8907L215.929 40.291L215.807 40.2211L211.942 42.1633L209.516 40.7659L214.058 32.8802L219.032 35.7449L219.213 40.7605L220.818 41.6203L222.288 37.1035L210.084 30.0744L210.056 30.123L211.355 31.9056L202.538 47.2159L200.344 46.9862L200.302 47.059Z"></path>
                        <path d="M215.912 56.1805L229.045 65.7337L233.01 61.9009L232.981 61.8453L227.468 63.9981L219.022 57.8544L241.299 50.4106L228.845 41.3516L224.896 45.1617L224.925 45.2173L230.438 43.0645L238.069 48.6152L215.912 56.1805Z"></path>
                    </svg>