<svg xmlns="http://www.w3.org/2000/svg" width="387" height="209" viewBox="0 0 387 209" style="enable-background:new 0 0 387 209;" xml:space="preserve">
<g>
	<path class="finger" d="M194.3,124.3c0,0-12,16.4-14.6,19.6s-14.2,16.7-16,20.2s-4,10.4,3.3,10.3c7.3-0.1,22.4-17.3,27.2-21.5
		s15.4-17.1,16.3-18S199.2,123.4,194.3,124.3z"></path>
	<path d="M335.9,1.1c0,0-30.7-0.3-50.6,10.8S252,29.5,247,37.2s-9.8,24.2-15.4,29.4s-11.9,18.5-12.8,23.2
		c-0.9,4.6-11.3,19.1-17.6,26.1s-19.1,24.4-21.5,28S162,164.6,162,167.6s0,9.3,8.5,6.8s28.1-24.8,30.7-28.2
		c2.6-3.4,14.2-19.4,26.9-24s19.7-12.9,21.6-16.5"></path>
	<path d="M228.1,122.2c0,0,1.2,8.1,0.1,14.2s-0.9,29.2-3.1,36.4s-5.4,24,2,27.3s13.3-4.6,15.5-13s5.1-28.6,5.3-41.1
		s1.5-9.7,0.6-14.3c-0.9-4.6-0.6-10.2,5.9-10.4"></path>
	<path d="M233.4,67.9c0,0,1.9,6.7,6.7,13.8s12.8,22.9,13.5,31.2s2,17.6,11.4,19.1c9.4,1.5,16.6-7.3,14.8-19.9
		S269.7,87,268,79.7s-0.5-18.8-4.9-23.4s-11-7.6-11-7.6"></path>
	<path d="M267,70.9c0,0,2.3-5.3,8.9-6.3s9.8,3.1,9.9,9.7c0.1,6.5,1.5,30.4,0.6,34.8c-0.9,4.4-0.4,13-9.1,18.1"></path>
	<path d="M284.5,67.9c1.6-6.2,6.5-2.6,8-2.3s3.8,1.3,3.8,1.3c8.9,16.7,4.2,34.2,2.6,43.1s-14.3,9.8-14.7,10.2"></path>
	<path d="M290.6,34.9c0,0,12.6,7,14.8,22.7s1.1,21.8-3.5,28.5"></path>
	<path d="M276.3,31.9c0,0,8,5.1,11.8,12.7c0,0,7.4,8.3-2,20.4"></path>
	<path d="M250.4,101.4c0,0,3.9-8.5,17-7"></path>
	<path d="M220.8,94.5c0,0,10.6,3.2,26,0"></path>
	<path d="M211.6,109.7c0.1,0,7.2,14.9,9.3,16.3"></path>
	<path d="M195.5,131.5c0,0,7.6,4.7,9.3,10.6"></path>
	<path d="M178.5,152.7c0,0,5.1,6.2,10,7.1"></path>
	<path d="M227.3,148.4c0,0,5-4.6,14.9-3"></path>
	<path d="M224.8,174.5c0,0,4.1-4.1,12.1-1"></path>
	<path d="M259.2,115.3c0,0-1.3,12.8,2.9,15.4s15.4-3.1,15.1-7.7s-2.7-11.3-6.7-11.9S261.6,111.6,259.2,115.3z"></path>
	<path d="M269.7,67.8c0,0-1.8,13.8,2.6,15.7s11.2-1.2,10.8-6.4s0.8-12.5-3.2-12.5"></path>
	<path d="M275.2,92.6c0,0,4.9-0.1,7.8-1.6"></path>
	<path d="M286.1,77.8c0.2,0,2.2,3.5,5.9,1.6s3.6-9.1,0.5-13.7"></path>
	<path d="M305.4,57.6c0,0,66-0.8,80.2,1.5"></path>
</g>
</svg>