<svg xmlns="http://www.w3.org/2000/svg" viewBox="0 0 451.3 252.8" style="enable-background:new 0 0 451.3 252.8;" xml:space="preserve">
                    <path data-intro="menuLetter" d="M55.3,225.7c0-10.7-5.1-20.1-14.7-20.1c-10.7,0-14.5,9-17.5,18.6c-2.5,9.1-5,16.4-12.1,16.4c-5.9,0-9.8-6.3-9.8-12.8
                        c0-2.4,0.4-5.1,0.8-6.6l15.3-7.8l-0.1-5.3l-15.1,2.6C0.9,216.6,0,222.4,0,226.6c0,11.2,5.5,19.6,14,19.5c9.8,0,13.2-8.1,16.2-18.1
                        c2.9-9.2,5.6-17.3,13.4-17.3c7.1,0,10.5,7.1,10.5,14.6c0,3.4-0.8,7.3-2.3,10.2l-17.1,8.3l0,3.7l16.5-1.1
                        C53.9,241.5,55.3,232.1,55.3,225.7z" style="opacity: 1;"></path>
                    <path data-intro="menuLetter" d="M54.9,205.1l8.8-37L51,159l-1.3,4.9l10.5,13.3l-3.4,14.4l-25-5.9l1.8-7.6l11.4-4.1l0.1-0.4l-20.6-4.9l-0.1,0.4l8.3,8.8
                        l-1.8,7.6l-24.7-5.8l3.7-15.6l13.2-4.5l1-5l-13.2-0.3l-9.1,38.2l0.2,0l3.7-4.9L53.5,199l1.1,6L54.9,205.1z" style="opacity: 1;"></path>
                    <path data-intro="menuLetter" d="M68.9,153.4l13.2-21.3c6.1-9.9,5.5-18.6-2.5-23.6c-7-4.4-14.8-2.2-21,5.5c2.6-7,1.9-13.2-3.8-16.8c-7.4-4.6-14.6-1-20.5,8.4
                        l-11.8,18.9l0.1,0.1l5.1-3.4l41.8,26l-0.8,6.1L68.9,153.4z M50.6,126.2l-19.9-12.4l3.3-5.4c3.6-5.8,9.4-8.6,16.4-4.2
                        c7,4.4,7,10.9,3.4,16.7L50.6,126.2z M75,141.3l-23.3-14.5l3.7-5.9c4.4-7.1,12.8-9.6,19.9-5.2c7,4.4,8.5,11.6,4.6,17.9L75,141.3z" style="opacity: 1;"></path>
                    <path data-intro="menuLetter" d="M91.6,117.1l27.2-26.6l-5.9-14.4l-3.7,3.4l1.8,16.9l-10.6,10.4l-18-18.4l5.6-5.5l11.8,2.6l0.3-0.3L85.1,70.1l-0.3,0.3
                        l2.3,11.8l-5.6,5.5L63.8,69.6l11.4-11.2l13.6,3.3l3.5-3.7l-11-7.3l-28,27.5l0.1,0.1l5.8-2.1l34.5,35.1l-2.3,5.7L91.6,117.1z" style="opacity: 1;"></path>
                    <path data-intro="menuLetter" d="M119.6,89.1l21.6-12.7c10-5.9,13.5-13.9,8.7-22.1c-4.2-7.1-12.1-8.8-21.2-4.9c5.6-5,7.8-10.9,4.4-16.6
                        c-4.4-7.5-12.5-7.7-22-2L91.9,42.1l0.1,0.1l6.1-0.7l25,42.4l-3.6,5L119.6,89.1z M116,56.5l-11.9-20.2l5.4-3.2
                        c5.9-3.5,12.3-3.3,16.5,3.9c4.2,7.1,1.2,12.9-4.7,16.4L116,56.5z M130.6,81.2l-13.9-23.7l6-3.5c7.2-4.2,15.8-2.5,20,4.6
                        c4.2,7.1,2.1,14.2-4.2,18L130.6,81.2z" style="opacity: 1;"></path>
                    <path data-intro="menuLetter" d="M156.4,67.4l36.4-11l1.4-15.5l-4.9,1.3L183.1,58l-14.2,4.3l-7.4-24.6l7.5-2.2l9.3,7.8l0.4-0.1l-6.1-20.3l-0.4,0.1l-3.4,11.5
                        l-7.5,2.2l-7.3-24.3l15.3-4.6l10.5,9.2l4.8-1.6l-6.3-11.6l-37.6,11.3l0,0.1l6.1,0.8L161,63.1l-4.7,4L156.4,67.4z" style="opacity: 1;"></path>
                    <path data-intro="menuLetter" d="M194.7,52.6c0.4,2.5,2.7,4.3,5.1,3.9l1.1-0.2c-1.1,3.3-3.1,6.9-5,10.3l0.9,0.7c3.1-4.6,7.4-12.2,6.8-16
                        c-0.4-2.5-2.7-4.2-5.1-3.8C196,47.8,194.3,50.1,194.7,52.6z" style="opacity: 1;"></path>
                    <path data-intro="menuLetter" d="M241.2,55.3c10.6,1,20.5-3.1,21.4-12.6c1-10.6-7.6-15.3-16.8-19.2C237,20,230,16.8,230.7,9.8c0.6-5.9,7.2-9.1,13.7-8.5
                        c2.4,0.2,5.1,0.9,6.5,1.5l6.2,16l5.3,0.4l-1.1-15.3c-5.8-1.9-11.5-3.4-15.6-3.8c-11.1-1.1-20,3.6-20.8,12c-0.9,9.8,6.7,14,16.4,17.9
                        c8.9,3.7,16.6,7.2,15.9,15.1c-0.7,7.1-8.1,9.7-15.6,9c-3.4-0.3-7.1-1.5-10-3.3L225.1,33l-3.7-0.4l-0.6,16.6
                        C225.6,52.3,234.8,54.7,241.2,55.3z" style="opacity: 1;"></path>
                    <path data-intro="menuLetter" d="M261.6,56.9l36,12.4l10.2-11.7l-4.7-1.8l-14.3,9.2l-14-4.8l8.4-24.3l7.4,2.5l3,11.7l0.4,0.1l6.9-20.1l-0.4-0.1l-9.5,7.4
                        l-7.4-2.5l8.2-24l15.1,5.2l3.2,13.6l4.8,1.5l1.6-13.1L279.4,5.2l-0.1,0.1l4.5,4.2l-16,46.5l-6.1,0.5L261.6,56.9z" style="opacity: 1;"></path>
                    <path data-intro="menuLetter" d="M329,54.3c-9.6,11.9-8.4,28.7,2.9,37.9c10.9,8.8,26.6,6.9,36.2-3.5l-0.2-0.2c-8.3,6.7-20.6,6.8-28.9,0
                        c-9.7-7.9-11-22-2.6-32.3c7.9-9.7,22.2-11.8,30.8-4.7l3.9,3.2l-0.3,16.9l4,3.1l4.5-14.9l-12.8-10.4C355.4,40.3,338.7,42.4,329,54.3z
                        " style="opacity: 1;"></path>
                    <path data-intro="menuLetter" d="M373.9,91.5c-12.9,8.8-16.3,25.4-8,37.6s25,15.1,37.9,6.3c12.9-8.8,16.3-25.4,8-37.6C403.5,85.7,386.8,82.7,373.9,91.5z
                        M378.7,98.6c12.4-8.4,26.5-8.3,32.1-0.2c5.6,8.2,0.5,21.4-11.9,29.8c-12.4,8.4-26.5,8.3-32.1,0.2
                        C361.3,120.2,366.4,107.1,378.7,98.6z" style="opacity: 1;"></path>
                    <path data-intro="menuLetter" d="M380.1,144.6l5.1,18.5l0.1,0l2.6-10l40.4-11.2l-37.7,34.6l0.1,0.2l49.8,8.7l-43.1,11.9l-3.9-4.7l-0.2,0.1l5.1,18.4l0.2-0.1
                        l0.9-6.1l45.4-12.6l6.1,5.1l0.2-0.1l-3.3-12l-45.9-8.1l34.8-32l-3.6-12.9l-0.2,0.1l-2.6,7.5l-42.8,11.9l-7.4-7.2L380.1,144.6z" style="opacity: 1;"></path>
                    <path data-intro="menuLetter" d="M396.3,208.5l-1.1,38l14.3,6.3l0.3-5.1l-13-10.9l0.4-14.8l25.7,0.8l-0.2,7.8l-10.3,6.3l0,0.4l21.2,0.6l0-0.4l-9.9-6.9
                        l0.2-7.8l25.3,0.7l-0.5,16l-12.1,7.1l0,5.1l13-2.4l1.1-39.2l-0.2,0l-2.7,5.5l-49.2-1.4l-2.3-5.7L396.3,208.5z" style="opacity: 1;"></path>
                </svg>