<?xml version="1.0" encoding="utf-8"?>
<!-- Generator: Adobe Illustrator 24.3.0, SVG Export Plug-In . SVG Version: 6.00 Build 0)  -->
<svg version="1.1" id="Calque_1" xmlns="http://www.w3.org/2000/svg" xmlns:xlink="http://www.w3.org/1999/xlink" x="0px" y="0px"
	 viewBox="0 0 428.5 296.1" style="enable-background:new 0 0 428.5 296.1;" xml:space="preserve">
<style>
    path {
        fill: #000;
    }
    @media (prefers-color-scheme: dark) {
        path {
            fill: #fff;
        }
    }
</style>

<path class="st0" d="M341.1,0.3c15.5-0.6,20.3,4.2,19.4,19.2c-0.8,13.2-7.5,20.9-20.4,23.1c-11,1.8-23.9-4.6-28.4-14.1
	c-3-6.5,0.3-16.8,6.6-20.2C325.7,4.2,332.5-1.5,341.1,0.3"/>
<path class="st0" d="M28.6,219.3c-2.8,0-5.4-1.6-6.6-4.3c-1.6-3.6,0.1-7.8,3.7-9.4c4.2-1.8,104.9-44.8,198.2-43.7
	c71.1,0.9,138.2,14.3,175.8,27.7c-19.3-25.5-53.6-65.4-85.6-76.5c-18.6-6.4-37.7-2.5-56.8,11.6c-14.9,11.1-24.2,24.5-24.3,24.6
	c-1.4,2-3.7,3.3-6.2,3.2c-2.5-0.1-4.6-1.4-5.8-3.6c-0.6-1-11.7-16.9-57-43c-17.3-10-49.6,2-90.9,33.9
	c-33.1,25.5-60.5,54.9-60.8,55.2c-2.7,2.9-7.2,3-10.1,0.4c-2.9-2.7-3-7.2-0.4-10.1c1.1-1.2,28.5-30.5,62.5-56.7
	c47.5-36.7,83.5-48.5,106.8-35c32,18.5,48.1,32.3,55.8,40.3c4.7-5.5,12-13.3,21.5-20.4c22.9-17.1,47.2-21.9,70.3-13.9
	c22.2,7.7,47.3,27.7,74.5,59.4c20,23.2,33.4,44,34,44.9c1.9,2.9,1.4,6.8-1.1,9.1c-2.5,2.4-6.4,2.5-9.2,0.4
	c-15.8-12-98.4-36.1-193.3-37.2c-1.1,0-2.2,0-3.4,0c-89.4,0-188,42.1-189,42.6C30.5,219.1,29.5,219.3,28.6,219.3z"/>
<path class="st0" d="M262,296.1c-11,0-22-1-32.9-3.1c-71-13.3-198.2-71.9-203.6-74.4c-3.2-1.5-4.8-5.1-3.9-8.4s4.3-5.6,7.8-5.1
	c2.4,0.3,243,30.3,363.8,0.2c3.8-1,7.7,1.4,8.7,5.2s-1.4,7.7-5.2,8.7c-51.9,13-129.8,16.9-231.6,11.8c-35.2-1.8-67.2-4.4-91.5-6.7
	c44.3,18.8,113.8,46.5,158.3,54.8c45.1,8.5,89.6-1.6,132.4-29.8c32.3-21.3,51.4-45.6,51.6-45.8c2.4-3.1,6.9-3.7,10-1.2
	c3.1,2.4,3.7,6.9,1.3,10c-0.8,1.1-20.4,26.1-54.6,48.7C337.3,284.2,299.7,296.1,262,296.1z"/>
</svg>
