<?xml version="1.0" encoding="utf-8"?>
<!-- Generator: Adobe Illustrator 24.3.0, SVG Export Plug-In . SVG Version: 6.00 Build 0)  -->
<svg version="1.1" id="Calque_1" xmlns="http://www.w3.org/2000/svg" xmlns:xlink="http://www.w3.org/1999/xlink" x="0px" y="0px"
	 viewBox="0 0 129.9 89.9" style="enable-background:new 0 0 129.9 89.9;" xml:space="preserve">
<g>
	<path d="M102.4,12.9c3.9-0.7,5.9-3.1,6.1-7.1c0.2-4.5-1.2-6-5.9-5.7l0,0c-2.6-0.5-4.7,1.2-6.9,2.4c-1.9,1-2.9,4.2-1.9,6.1
		C95.1,11.7,99.1,13.5,102.4,12.9z"/>
	<path d="M7.9,67.5L7.9,67.5l0.5,0.2c0.3,0.1,0.7,0.3,1.3,0.6c1.2,0.5,2.8,1.2,4.8,2.1c4.1,1.8,9.7,4,16.1,6.5
		c12.7,4.9,28.2,10.3,39.2,12.2c18,3.1,32.9-3.3,43.3-10.3c5.2-3.5,9.2-7.2,12-10.1c1.4-1.4,2.5-2.7,3.2-3.5c0.4-0.4,0.6-0.8,0.9-1
		c0.1-0.1,0.1-0.2,0.2-0.3l0.1-0.1l0,0l0,0l0,0c0.3-0.4,0.5-1,0.4-1.5l0,0c0-0.1-0.1-0.2-0.1-0.3l0-0.1c0-0.1-0.1-0.2-0.1-0.3l0-0.1
		c0-0.1-0.1-0.2-0.1-0.2c0,0,0,0,0-0.1l0,0l0,0l0,0l0,0l0-0.1l-0.2-0.3c-0.1-0.2-0.3-0.4-0.5-0.8c-0.5-0.7-1.2-1.7-2.2-2.9
		c-1.8-2.5-4.4-5.8-7.6-9.3c-6.2-6.9-14.5-14.9-22.8-17.6c-8.7-2.9-16.1,0.6-21.3,4.5c-2.6,2-4.6,4.1-6,5.7
		c-0.2,0.1-0.3,0.4-0.5,0.5c-0.5-0.5-1.1-1.1-1.9-1.7c-2.8-2.5-7.5-5.9-15.2-10.1C46.7,26.6,41,27.6,35.6,30
		c-5.5,2.3-11.2,6.2-16.3,10.3c-5.2,4.1-9.8,8.4-13.2,11.8c-1.7,1.7-3.1,3-4,4c-0.5,0.5-0.9,0.9-1.1,1.1c-0.2,0.1-0.2,0.3-0.3,0.3
		l-0.1,0.1l0,0l0,0c-0.8,0.8-0.7,2.3,0.1,3.1s2.3,0.7,3.1-0.1L7,64.5c-0.1,0.2-0.3,0.4-0.3,0.7C6.4,66,6.9,67.1,7.9,67.5 M55.4,66.4
		c-1.7-0.1-3.4-0.1-5-0.2c-11.5-0.4-21.8-1.1-29.3-1.7c-1.2-0.1-2.2-0.2-3.2-0.3c2.9-1.1,6.5-2.3,10.5-3.5
		c11.1-3.4,25.6-6.9,39.4-6.9c13.9,0,27.3,1.6,38,3.7c5.2,1.1,9.6,2.2,13.3,3.4C112.1,65.1,77.6,65.4,55.4,66.4z"/>
</g>
</svg>
