<?xml version="1.0" standalone="no"?>
<!DOCTYPE svg PUBLIC "-//W3C//DTD SVG 20010904//EN"
 "http://www.w3.org/TR/2001/REC-SVG-20010904/DTD/svg10.dtd">
<svg version="1.0" xmlns="http://www.w3.org/2000/svg"
 width="858.000000pt" height="858.000000pt" viewBox="0 0 858.000000 858.000000"
 preserveAspectRatio="xMidYMid meet">
<metadata>
Created by potrace 1.14, written by Peter Selinger 2001-2017
</metadata>
<g transform="translate(0.000000,858.000000) scale(0.100000,-0.100000)"
fill="#000000" stroke="none">
<path d="M6660 7234 c-60 -20 -107 -42 -150 -69 -19 -12 -68 -41 -108 -65 -83
-49 -110 -77 -147 -156 -31 -66 -43 -168 -26 -231 22 -81 128 -196 231 -252
238 -128 553 -66 681 134 27 42 47 87 53 120 3 11 9 39 14 61 15 68 12 240 -7
297 -23 71 -73 123 -144 148 -81 28 -331 36 -397 13z"/>
<path d="M2948 5485 c-2 -1 -32 -5 -68 -9 -102 -11 -127 -15 -193 -31 -155
-39 -327 -104 -482 -182 -60 -31 -132 -67 -160 -80 -27 -14 -51 -29 -53 -34
-2 -5 -8 -9 -13 -9 -8 0 -103 -53 -159 -90 -53 -34 -305 -203 -314 -211 -6 -5
-72 -55 -146 -111 -122 -92 -319 -247 -346 -273 -6 -5 -30 -26 -54 -45 -24
-19 -64 -53 -88 -75 -61 -53 -81 -72 -144 -127 -148 -131 -337 -309 -506 -478
-206 -207 -224 -230 -221 -290 4 -72 47 -124 111 -135 75 -13 87 -5 310 218
171 170 360 351 452 432 6 6 34 30 61 55 28 25 79 70 115 100 35 30 71 62 80
70 9 8 38 33 65 55 28 21 59 47 70 57 33 29 176 141 240 189 33 24 62 46 65
49 3 3 21 17 40 30 19 13 37 27 40 30 9 10 223 153 330 222 117 74 285 165
455 244 105 49 281 105 401 127 66 12 244 15 290 4 72 -17 117 -36 182 -74 41
-24 75 -43 77 -43 9 0 412 -256 425 -270 3 -3 34 -25 70 -50 36 -24 67 -48 68
-52 2 -4 10 -8 17 -8 7 0 15 -4 17 -9 2 -5 35 -33 74 -62 151 -114 306 -263
372 -357 61 -85 190 -83 243 4 30 48 129 163 229 264 234 236 472 389 722 465
103 31 113 33 198 42 102 11 239 6 315 -11 11 -2 42 -9 68 -15 66 -16 214 -75
305 -123 134 -71 363 -228 451 -308 10 -8 44 -37 76 -65 201 -168 548 -532
758 -795 7 -8 32 -40 57 -71 25 -30 56 -71 70 -89 14 -18 36 -46 49 -62 13
-16 21 -31 19 -33 -4 -5 -83 18 -123 35 -29 13 -202 64 -335 99 -63 17 -131
35 -150 41 -34 9 -218 52 -390 90 -87 19 -153 32 -180 36 -8 0 -40 6 -70 13
-67 14 -96 19 -135 26 -16 3 -43 7 -60 10 -70 13 -152 27 -185 31 -19 3 -44 7
-55 9 -11 2 -42 6 -70 9 -27 4 -57 9 -65 11 -8 2 -41 7 -73 10 -32 4 -68 9
-80 11 -12 3 -47 7 -77 9 -30 3 -66 7 -80 9 -14 3 -47 8 -75 10 -79 9 -158 17
-185 21 -14 2 -63 6 -110 10 -47 4 -101 8 -120 10 -34 3 -191 15 -275 20 -384
25 -1080 25 -1237 0 -26 -4 -161 -17 -223 -21 -22 -1 -40 -3 -40 -4 0 -1 -13
-4 -30 -5 -66 -7 -122 -14 -160 -21 -22 -4 -56 -8 -75 -9 -19 -2 -35 -4 -35
-5 0 -1 -9 -4 -20 -5 -42 -5 -113 -17 -214 -35 -57 -11 -107 -19 -110 -18 -3
0 -8 -1 -11 -2 -6 -2 -26 -6 -62 -13 -36 -7 -176 -36 -208 -43 -14 -3 -36 -7
-50 -10 -20 -4 -143 -33 -212 -50 -10 -2 -27 -6 -38 -8 -11 -3 -48 -12 -83
-21 -34 -9 -71 -18 -81 -21 -61 -12 -378 -102 -546 -154 -107 -33 -202 -62
-210 -64 -8 -3 -69 -23 -135 -46 -66 -22 -129 -43 -140 -45 -11 -3 -29 -9 -40
-14 -25 -11 -117 -44 -130 -47 -27 -5 -441 -169 -446 -177 -3 -5 -9 -8 -13 -8
-23 3 -35 -3 -70 -34 -33 -29 -40 -42 -44 -85 -3 -33 0 -61 9 -78 14 -27 58
-72 71 -72 3 0 54 -22 113 -50 59 -27 108 -50 110 -50 2 0 36 -15 77 -34 40
-18 107 -48 148 -66 41 -18 95 -41 120 -52 25 -11 59 -26 75 -33 70 -31 251
-108 400 -170 88 -36 169 -70 180 -75 42 -20 291 -121 306 -125 9 -2 25 -8 35
-14 11 -5 51 -22 89 -36 39 -14 79 -30 90 -35 27 -13 169 -68 230 -90 28 -10
73 -27 100 -38 122 -47 243 -92 248 -92 2 0 22 -8 43 -17 22 -9 44 -18 49 -19
6 -1 44 -15 85 -29 144 -52 355 -126 370 -130 8 -2 69 -21 135 -43 109 -36
209 -68 395 -123 94 -28 361 -100 390 -106 13 -2 63 -13 110 -24 47 -11 103
-23 124 -25 22 -3 43 -7 46 -9 7 -5 184 -33 245 -40 157 -17 215 -20 420 -20
211 0 313 5 435 21 88 11 286 45 350 60 36 9 72 17 80 19 8 2 44 11 80 20 36
9 70 18 75 20 6 1 17 4 25 7 8 4 65 22 125 41 103 33 326 116 363 137 9 5 75
36 145 69 107 51 264 135 352 188 11 7 31 18 45 25 14 7 27 15 30 18 9 9 69
50 74 50 6 0 234 156 250 172 8 7 39 31 70 53 31 22 56 43 56 47 0 4 5 8 10 8
6 0 19 8 29 17 10 10 38 34 62 53 139 114 347 306 433 399 17 18 51 55 76 81
54 57 83 91 130 150 31 40 35 51 35 107 0 50 -4 66 -22 85 -13 14 -23 30 -23
36 0 7 -7 15 -15 18 -8 4 -15 10 -15 15 0 14 -168 251 -182 257 -5 2 -8 9 -8
15 0 7 -13 26 -28 43 -15 18 -34 42 -42 54 -8 12 -22 30 -30 40 -8 11 -26 34
-40 52 -44 58 -201 252 -228 283 -15 17 -40 46 -56 65 -172 209 -481 525 -686
699 -41 36 -76 68 -78 73 -2 4 -8 8 -13 8 -5 0 -36 22 -70 49 -64 52 -264 191
-275 191 -3 0 -18 9 -34 20 -35 25 -259 137 -290 145 -3 0 -34 11 -70 23 -36
12 -67 22 -70 21 -3 0 -18 4 -33 10 -15 6 -45 13 -65 16 -20 2 -48 8 -62 11
-35 10 -346 10 -395 1 -117 -22 -157 -31 -229 -54 -78 -25 -145 -53 -236 -96
-62 -30 -194 -109 -198 -119 -2 -4 -8 -8 -13 -8 -42 0 -384 -303 -501 -444
l-24 -28 -34 35 c-31 30 -71 67 -185 166 -24 21 -85 69 -170 134 -92 70 -370
258 -478 323 -27 16 -61 36 -75 46 -184 114 -318 177 -411 193 -79 13 -236 26
-243 20z m1759 -1771 c223 -6 404 -15 563 -28 19 -2 80 -7 135 -11 55 -4 108
-9 118 -11 10 -2 46 -6 80 -9 34 -4 78 -8 97 -10 19 -2 60 -7 90 -10 78 -9
115 -13 200 -25 41 -6 94 -13 116 -16 23 -2 53 -7 65 -10 13 -2 69 -11 124
-19 55 -9 111 -18 125 -20 14 -3 41 -8 60 -11 19 -3 42 -7 50 -9 8 -3 33 -7
55 -10 22 -4 96 -18 165 -32 69 -13 139 -27 155 -29 17 -3 37 -7 45 -10 8 -3
24 -8 35 -10 11 -2 70 -15 130 -29 61 -14 121 -28 133 -31 46 -10 132 -33 140
-38 5 -3 21 -7 36 -10 62 -11 397 -113 481 -146 11 -4 43 -16 70 -25 111 -39
235 -97 235 -110 0 -23 -350 -356 -525 -500 -89 -73 -294 -225 -304 -225 -5 0
-11 -4 -13 -8 -4 -10 -115 -83 -253 -167 -132 -80 -451 -238 -590 -293 -89
-35 -274 -101 -300 -106 -29 -7 -103 -28 -125 -36 -14 -5 -41 -12 -60 -15 -19
-4 -55 -11 -80 -16 -25 -6 -56 -13 -70 -15 -14 -2 -38 -7 -55 -11 -16 -4 -39
-7 -50 -9 -11 -1 -39 -5 -63 -8 -135 -22 -269 -30 -467 -30 -266 1 -402 14
-655 65 -52 10 -108 21 -125 24 -16 3 -66 14 -110 26 -44 11 -91 23 -105 26
-14 2 -32 7 -40 9 -8 3 -17 6 -20 6 -3 0 -25 7 -50 15 -25 7 -52 15 -60 17 -8
2 -55 16 -105 31 -49 14 -94 28 -100 29 -26 6 -132 38 -145 43 -8 3 -19 7 -25
9 -48 12 -607 203 -675 231 -8 3 -22 7 -30 9 -8 2 -23 7 -35 12 -11 6 -47 20
-80 32 -33 12 -69 26 -80 30 -11 4 -65 25 -120 46 -263 99 -1011 400 -1132
455 -24 10 -47 19 -52 19 -6 0 -12 4 -15 9 -3 4 11 6 32 4 20 -2 57 -6 82 -8
25 -2 45 -4 45 -5 0 -1 25 -3 185 -15 47 -3 101 -8 120 -10 19 -2 71 -7 115
-10 44 -3 103 -8 130 -10 81 -7 174 -14 275 -21 52 -3 120 -7 150 -10 92 -6
200 -13 300 -19 52 -3 131 -7 175 -10 387 -24 901 -43 1390 -51 187 -3 345 -5
350 -6 28 -1 860 14 920 17 104 4 343 16 400 20 28 2 95 6 150 10 55 3 114 8
130 9 17 2 68 7 115 11 47 4 103 9 125 11 22 3 58 6 80 8 46 5 114 12 195 22
30 4 69 8 85 10 17 2 46 6 65 9 19 3 53 8 75 10 22 3 51 7 65 10 14 3 43 7 65
10 22 3 52 8 68 10 15 3 40 7 57 9 16 3 53 9 82 15 29 6 65 13 81 16 54 10 84
16 192 41 60 13 120 26 133 29 81 14 139 99 120 175 -20 77 -107 132 -174 109
-11 -4 -34 -10 -50 -13 -16 -2 -39 -7 -51 -10 -13 -3 -32 -8 -43 -11 -36 -9
-57 -13 -94 -19 -19 -3 -57 -11 -83 -17 -27 -6 -59 -13 -73 -15 -14 -2 -41 -7
-60 -10 -19 -3 -44 -8 -55 -9 -11 -2 -36 -6 -55 -10 -19 -3 -52 -7 -72 -9 -20
-3 -45 -7 -55 -10 -10 -3 -43 -8 -73 -11 -30 -3 -68 -8 -85 -10 -16 -2 -57 -7
-90 -11 -33 -3 -67 -8 -75 -9 -8 -2 -49 -6 -90 -9 -41 -4 -91 -9 -110 -12 -39
-5 -95 -10 -220 -19 -47 -4 -107 -8 -135 -10 -45 -4 -183 -12 -335 -20 -277
-15 -517 -19 -1075 -19 -757 0 -1010 7 -1790 49 -38 2 -110 6 -160 10 -49 3
-128 8 -175 11 -47 3 -114 7 -150 10 -199 14 -249 17 -287 18 -24 0 -43 3 -43
6 0 3 -30 6 -68 6 -37 1 -98 4 -137 8 -38 4 -97 9 -130 11 -33 3 -87 7 -120
10 -33 3 -82 8 -110 10 -27 3 -72 7 -100 10 -27 3 -81 7 -120 11 -38 3 -83 7
-100 9 -39 5 -185 18 -207 19 -10 0 -14 3 -10 7 8 8 345 120 352 117 3 -1 15
4 28 11 13 7 31 14 40 16 9 2 53 14 97 28 180 56 258 79 420 122 189 51 199
54 235 61 14 3 39 9 55 14 31 9 359 83 444 100 25 5 57 12 71 15 13 2 42 7 65
10 22 3 47 8 55 10 8 2 29 7 45 10 17 2 41 7 55 10 14 3 47 7 73 10 27 3 52 7
55 9 4 2 32 7 62 11 30 3 62 8 70 10 8 2 38 6 65 10 28 3 61 8 75 10 14 2 54
6 90 9 36 4 75 8 86 10 11 2 62 7 114 11 52 4 113 9 135 11 22 2 148 6 280 10
132 4 242 8 244 10 2 2 8 1 12 -2 5 -3 93 -7 196 -10z"/>
</g>
</svg>
