<svg xmlns="http://www.w3.org/2000/svg" width="608" height="407" viewBox="0 0 608 407" data-scroll="item" data-module-timeline="seComeTitle" data-timeline-from="{&quot;y&quot;:0,&quot;scale&quot;:1,&quot;opacity&quot;:1}" data-timeline-to="{&quot;y&quot;:&quot;0&quot;,&quot;scale&quot;:0.7,&quot;opacity&quot;:0}" data-scroll-progress-call="progress,Timeline,seComeTitle" data-scroll-target="#secome-cover" data-scroll-start="top -40%" data-scroll-end="bottom 250%" style="translate: none; rotate: none; scale: none; opacity: 0.854; transform: translate3d(0px, 0px, 0px) scale(0.9562, 0.9562);" class="is-inview">
                    <path d="M249.2 169.718C273.86 169.718 295.64 158.198 295.64 136.058C295.64 111.398 274.94 102.578 252.8 95.558C231.74 89.618 215 83.858 215 67.478C215 53.798 229.58 44.978 244.7 44.978C250.28 44.978 256.58 45.878 260 46.958L277.82 82.418L290.06 82.238L284.3 47.318C270.62 44.258 257.12 42.098 247.58 42.098C221.84 42.098 202.4 54.698 202.4 74.318C202.4 96.998 220.94 104.918 243.98 111.758C265.22 118.418 283.76 124.718 283.76 142.898C283.76 159.278 267.38 167.018 249.92 167.018C242 167.018 233.18 165.038 226.34 161.618L207.26 122.018H198.62L200.96 160.178C212.66 166.298 234.26 169.718 249.2 169.718ZM312.827 168.998H400.667L414.167 135.698L402.467 135.338L378.167 166.118H343.967V106.718H361.967L377.267 130.118H378.167V81.158H377.267L361.967 104.378H343.967V45.878H380.867L397.967 73.238L409.667 72.878L403.367 42.998H312.827V43.358L325.787 49.118V162.698L312.827 168.458V168.998Z"></path>
                    <path d="M32.9713 261.244C24.5218 295.497 43.5751 329.49 76.2555 337.551C107.712 345.311 138.473 325.831 148.548 294.76L147.849 294.587C137.179 316.798 111.547 329.015 87.4299 323.066C59.4681 316.168 42.9208 287.8 50.2495 258.09C57.147 230.128 85.0299 211.793 110.021 217.957L121.38 220.759L137.427 256.42L148.872 258.873L143.74 223.309L106.691 214.17C74.3602 206.194 41.4208 226.991 32.9713 261.244Z"></path>
                    <path d="M166.729 292.495C163.817 328.377 188.815 358.579 222.544 361.317C256.273 364.055 285.815 338.281 288.728 302.399C291.641 266.517 266.643 236.315 232.913 233.577C199.184 230.839 169.642 256.613 166.729 292.495ZM186.465 294.097C189.261 259.651 209.91 234.419 232.695 236.268C255.48 238.118 271.789 266.35 268.993 300.797C266.197 335.243 245.548 360.475 222.763 358.626C199.978 356.776 183.668 328.544 186.465 294.097Z"></path>
                    <path d="M310.082 366.925L354.139 362.494L354.103 362.136L332.3 352.208L322.609 255.854L386.5 355.078L387.037 355.024L426.287 245.245L436.61 347.867L424.291 354.895L424.345 355.432L468.224 351.019L468.17 350.482L454.698 346.048L443.818 237.873L457.817 225.973L457.763 225.435L429.287 228.3L392.987 329.641L333.828 237.901L303.024 241L303.078 241.537L319.167 250.411L329.435 352.496L310.046 366.567L310.082 366.925Z"></path>
                    <path d="M493.213 344.279L577.995 321.303L582.315 285.631L570.928 288.344L555.525 324.408L522.516 333.354L506.979 276.022L524.352 271.314L545.24 289.897L546.109 289.662L533.303 242.406L532.434 242.642L523.74 269.055L506.367 273.763L491.066 217.3L526.681 207.648L550.342 229.583L561.541 226.175L547.645 198.983L460.256 222.665L460.351 223.012L474.366 225.182L504.074 334.808L493.072 343.757L493.213 344.279Z"></path>
                </svg>