<svg width="599" height="398" viewBox="0 0 599 398" fill="none" xmlns="http://www.w3.org/2000/svg">
<path d="M6 252.448C52.9331 202.964 152.156 110.118 209.547 118.536C228.932 123.127 276.886 144.859 313.616 195.057C322.798 185.109 391.668 76.4489 488.85 164.448C504.154 177.457 549.302 213.422 592.154 274.639M592.154 274.639C566.136 274.639 337.337 154.501 34.3129 279.996M592.154 274.639C553.893 319.022 488.85 384.065 362.59 391.717C195.773 391.717 83.5416 309.839 34.3129 279.996M34.3129 279.996C176.643 305.248 306.729 314.43 547.006 284.587" stroke="#E7BEAF" stroke-width="12" stroke-linecap="round" stroke-linejoin="round"/>
<path d="M439.617 59.948C457.765 56.9387 467.277 46.0303 468.403 27.4734C469.53 6.40884 462.896 -0.487302 440.994 0.515773C431.071 -1.61425 422.951 3.23012 414.711 8.1458C412.765 9.30673 410.812 10.4716 408.828 11.5496C399.941 16.4396 395.185 30.9842 399.566 40.0119C405.949 53.5534 424.222 62.581 439.617 59.948Z" fill="#E7BEAF"/>
<path d="M439.617 59.948C457.765 56.9387 467.277 46.0303 468.403 27.4734C469.53 6.40884 462.896 -0.487302 440.994 0.515773C431.071 -1.61425 422.951 3.23012 414.711 8.1458C412.765 9.30673 410.812 10.4716 408.828 11.5496C399.941 16.4396 395.185 30.9842 399.566 40.0119C405.949 53.5534 424.222 62.581 439.617 59.948Z" stroke="#E7BEAF"/>
</svg>
